<svg xmlns="http://www.w3.org/2000/svg" xmlns:xlink="http://www.w3.org/1999/xlink" width="360.573" height="332.23" viewBox="0 0 360.573 332.23">
  <defs>
    <filter id="ASK" x="60.546" y="0" width="233" height="172" filterUnits="userSpaceOnUse">
      <feOffset dx="12" dy="8" input="SourceAlpha"/>
      <feGaussianBlur stdDeviation="5" result="blur"/>
      <feFlood flood-opacity="0.161"/>
      <feComposite operator="in" in2="blur"/>
      <feComposite in="SourceGraphic"/>
    </filter>
  </defs>
  <g id="Group_4" data-name="Group 4" transform="translate(-1259.454 -453)">
    <g id="Group_1" data-name="Group 1">
      <g transform="matrix(1, 0, 0, 1, 1259.45, 453)" filter="url(#ASK)">
        <text id="ASK-2" data-name="ASK" transform="translate(63.55 120)" fill="#fff" font-size="108" font-family="Roboto-Regular, Roboto"><tspan x="0" y="0">ASK</tspan></text>
      </g>
    </g>
    <g id="Group_2" data-name="Group 2" transform="translate(-135.239 614.715)">
      <path id="Path_9" data-name="Path 9" d="M129.713-711.936c-2.438,9.345-4.379,17.29-4.379,17.561,0,.451,4.018.587,18.509.587h18.509v-1.264c0-6.5,6.094-12.415,12.866-12.415,4.921-.045,6.456.813,28.215,15.349,22.256,14.9,25.371,17.38,26.816,21.579,1.58,4.65.451,9.932-2.754,12.956-2.257,2.077-63.472,40.314-67.264,41.984a16.358,16.358,0,0,1-10.564.587c-4.56-1.535-8.532-6.817-8.532-11.376v-1.49H107.818l-.5,1.445c-.226.813-5.237,19.863-11.151,42.345-5.869,22.437-10.744,41.081-10.88,41.4-.181.451,2.844.587,15.484.587,8.668,0,17.2-.226,18.915-.451,6-.858,9.525-3.431,12.008-8.8.722-1.49,3.476-10.97,6.14-21.127l4.83-18.374H151.7c5.011,0,11.286-.226,13.995-.451,26.454-2.528,52.909-19.1,69.115-43.338a90.79,90.79,0,0,0,12.415-29.614,73.226,73.226,0,0,0,.767-21.624c-3.612-23.43-20.676-39.682-44.783-42.616-2.618-.316-15.71-.5-36.567-.5h-32.5Z" transform="translate(1323.156 712.619)" fill="#fff"/>
      <path id="Path_10" data-name="Path 10" d="M60.822-570.007c-5.508,2.709-8.216,15.168-3.747,17.38.406.181,16.839.451,36.431.587l35.709.226,2.212,1.129c3.25,1.67,4.379,3.973,3.973,8.352-.226,3.07-.181,3.341.722,3.837a3.046,3.046,0,0,0,2.528,0c2.393-.813,44.963-26.906,46.408-28.441,1.49-1.67,1.535-2.438.226-3.341-.9-.632-7.494-.722-61.757-.722H62.808Z" transform="translate(1339.861 625.947)" fill="#0e8c46"/>
      <path id="Path_14" data-name="Path 14" d="M60.822-539.219c-5.508-2.709-8.216-15.168-3.747-17.38.406-.181,16.839-.451,36.431-.587l35.709-.226,2.212-1.129c3.25-1.67,4.379-3.973,3.973-8.352-.226-3.07-.181-3.341.722-3.837a3.046,3.046,0,0,1,2.528,0c2.393.813,44.963,26.906,46.408,28.441,1.49,1.67,1.535,2.438.226,3.341-.9.632-7.494.722-61.757.722H62.808Z" transform="translate(1360.861 587.947)" fill="#f37b21"/>
    </g>
    <g id="Group_3" data-name="Group 3" transform="translate(99.061 -105.932)">
      <path id="Path_11" data-name="Path 11" d="M469.561-729.257c-9.227,1.683-17.32,8.385-21.723,17.968-.809,1.781-4.921,17.061-15.7,58.564-8.061,30.885-14.7,56.427-14.795,56.751-.194.583.324.583,12.237.486,11.784-.1,12.5-.162,14.277-.809a11.714,11.714,0,0,0,5.795-4.338c.68-1.068,1.942-5.471,5.115-18.1,2.331-9.162,4.4-17.223,4.565-17.9l.324-1.2h24.086c18.259,0,24.119.1,24.119.389,0,.194-2.331,9.518-5.18,20.687S497.5-596.2,497.5-595.91c0,.486.939.518,11.266.421,11.946-.162,12.723-.227,16.058-1.942a17.933,17.933,0,0,0,4.759-4.209c.583-1.068,22.338-85.564,22.953-89.125,1.23-7.122,1.165-13.5-.162-18.777a33.453,33.453,0,0,0-1.975-5.018,17,17,0,0,0-4.306-5.827c-4.5-4.435-9.777-6.928-17.838-8.45-3.594-.68-4.565-.712-29.946-.809C476.619-729.71,471.666-729.646,469.561-729.257Zm47.557,22.565a8.909,8.909,0,0,1,5.5,7.9c.227,2.234.1,2.881-4.532,22.435-1.878,7.932-3.594,15.086-3.788,15.928l-.356,1.554H464.09l.194-.745c.1-.389,2.59-10.1,5.568-21.594,2.946-11.493,5.5-21.14,5.7-21.464a12.719,12.719,0,0,1,3.626-3.691c2.557-1.327,3.011-1.36,19.78-1.295l16.187.065Z" transform="translate(912.861 1434.394)" fill="#fff"/>
      <path id="Path_12" data-name="Path 12" d="M900.932-729.611c-.162.486-7.932,30.4-7.932,30.561,0,.065,6.54.13,14.5.13h14.536l3.788-14.989c2.072-8.223,3.853-15.216,3.95-15.539.162-.518-.68-.55-14.277-.55C904.266-730,901.029-729.9,900.932-729.611Z" transform="translate(591.173 1434.619)" fill="#fff"/>
      <path id="Path_13" data-name="Path 13" d="M833.18-594.317c-.648,2.3-23.18,88.931-23.18,89.125,0,.291,19.91.162,21.788-.162a13,13,0,0,0,7.187-3.594,11.619,11.619,0,0,0,1.781-2.3c.162-.421,5.115-19.392,11.007-42.183s10.781-41.7,10.878-42.021c.162-.518-.68-.55-14.406-.55H833.665Z" transform="translate(647.303 1344)" fill="#fff"/>
    </g>
  </g>
</svg>
