<svg xmlns="http://www.w3.org/2000/svg" width="512" height="512" viewBox="0 0 512 512">
  <g id="send" transform="translate(0 0)">
    <path id="Path_1" data-name="Path 1" d="M329.065,512H276a36.044,36.044,0,0,1-35.967-34.457l-29.9-175.674-175.674-29.9A36.046,36.046,0,0,1,0,236V182.935A85.8,85.8,0,0,1,65.557,99.4L467.637,1l.168-.04A36,36,0,0,1,511.043,44.2c-.013.056-.026.112-.04.168l-98.4,402.08A85.8,85.8,0,0,1,329.065,512ZM475.13,32.108,73.164,130.483A53.875,53.875,0,0,0,32,182.935V236a4,4,0,0,0,4,4,16,16,0,0,1,2.685.227l188,32a16,16,0,0,1,13.088,13.088l32,188A16,16,0,0,1,272,476a4,4,0,0,0,4,4h53.065a53.875,53.875,0,0,0,52.452-41.164L479.893,36.87a4,4,0,0,0-4.763-4.762Z" fill="#fff"/>
    <path id="Path_2" data-name="Path 2" d="M224,304a16,16,0,0,1-11.313-27.314l160-160a16,16,0,1,1,22.627,22.627l-160,160A15.949,15.949,0,0,1,224,304Z" fill="#fff"/>
  </g>
</svg>
