<svg xmlns="http://www.w3.org/2000/svg" xmlns:xlink="http://www.w3.org/1999/xlink" width="658" height="363.334" viewBox="0 0 658 363.334">
  <defs>
    <filter id="Path_21" x="0" y="0" width="498.907" height="363.334" filterUnits="userSpaceOnUse">
      <feOffset dy="12" input="SourceAlpha"/>
      <feGaussianBlur stdDeviation="3" result="blur"/>
      <feFlood flood-opacity="0.161"/>
      <feComposite operator="in" in2="blur"/>
      <feComposite in="SourceGraphic"/>
    </filter>
    <filter id="COVID-19" x="37" y="51.707" width="621" height="202" filterUnits="userSpaceOnUse">
      <feOffset dy="15" input="SourceAlpha"/>
      <feGaussianBlur stdDeviation="3" result="blur-2"/>
      <feFlood flood-opacity="0.161"/>
      <feComposite operator="in" in2="blur-2"/>
      <feComposite in="SourceGraphic"/>
    </filter>
    <filter id="ASK" x="139" y="15.707" width="187" height="119" filterUnits="userSpaceOnUse">
      <feOffset dy="13" input="SourceAlpha"/>
      <feGaussianBlur stdDeviation="3" result="blur-3"/>
      <feFlood flood-opacity="0.161"/>
      <feComposite operator="in" in2="blur-3"/>
      <feComposite in="SourceGraphic"/>
    </filter>
  </defs>
  <g id="Group_8" data-name="Group 8" transform="translate(-26 -691.293)">
    <g id="Group_7" data-name="Group 7">
      <g transform="matrix(1, 0, 0, 1, 26, 691.29)" filter="url(#Path_21)">
        <path id="Path_21-2" data-name="Path 21" d="M22.21-809.306a28.709,28.709,0,0,0-5.1,1.918A19.958,19.958,0,0,0,6.514-792.869c-.305,2.093-.436,33.4-.349,110.174L6.3-575.443l.959,2.572a26.375,26.375,0,0,0,2.006,4.142,9.436,9.436,0,0,1,1.308,4.447c.349,3.88,1.177,6.976,1.744,6.627.262-.131.305-.044.131.218-.436.741.174,2.747.785,2.4.262-.174.174.087-.174.523-.61.741-.567.785.087.523.567-.174.654-.087.48.436-.174.48-.087.61.218.392.349-.218.436-.044.218.436-.174.523-.131.654.218.436s.436-.044.218.436c-.218.567-.131.654.305.392.349-.218.48-.174.305.087-.174.218.087.828.567,1.352.61.61.7.959.305,1.09-.392.174-.392.262.044.262.741.044,2.7,2.006,2.7,2.7,0,.305.131.392.262.261.174-.131.828.305,1.482,1s1.352,1.133,1.526.959c.218-.174.218.044.087.48-.174.436-.131.7.087.523a.53.53,0,0,1,.7.218.53.53,0,0,0,.7.218c.218-.174.392-.044.392.218s.174.393.392.262.523.044.654.436c.131.349.436.523.7.393.218-.131.436-.044.436.174,0,.262.131.436.349.393A2.39,2.39,0,0,1,27.7-540c.523.261,1.046.349,1.221.218.131-.131.262-.087.262.174,0,.218.262.436.567.48a9.726,9.726,0,0,1,2.267.523,42.957,42.957,0,0,0,5.668,1.177c.741.087,15.041.262,31.827.349,16.785.044,31,.262,31.609.436a12.657,12.657,0,0,0,1.657.305c.262.044.523.218.523.436s.262.262.567.087c.305-.218.262,0-.131.48-.349.436-.436.7-.174.523a.782.782,0,0,1,.959.262c.218.261,2.747,11.292,5.581,24.5,2.79,13.167,5.363,24.2,5.668,24.459a3.147,3.147,0,0,1,.785,1.526c.262,1.264.7,3.052.872,3.662.087.218.305,1.09.48,1.831.218.872.523,1.308.828,1.134.262-.174.218.044-.131.436-.305.392-.392.741-.174.741.262,0,.785.872,1.221,1.918.436,1.09,1,1.831,1.221,1.7.262-.131.305-.044.131.218-.174.305-.044.523.262.523.392,0,.392.131-.087.436-.567.393-.567.436,0,.48a3.825,3.825,0,0,0,1,0c.174,0,.262.218.218.479a.332.332,0,0,0,.436.436.43.43,0,0,1,.523.393c0,.218.218.305.523.131.305-.218.349-.131.087.305-.523.872-.61,1.657-.174,1.918.218.131.305-.131.218-.61-.131-.61.087-.828.7-.785.436.044.828.218.828.436,0,.174.174.218.436.087s.436-.087.436.174c0,.218.349.349.785.262a1.987,1.987,0,0,1,1.177.174c.654.349,4.142.349,4.142,0,0-.174.392-.262.872-.174a1.147,1.147,0,0,0,1.09-.262.559.559,0,0,1,.7-.174c.218.174.392.044.392-.218s.218-.349.436-.218c.262.131.436.043.436-.218s.218-.349.436-.218c.262.131.436.044.436-.218s.174-.392.392-.218a.53.53,0,0,0,.7-.218,1.018,1.018,0,0,1,.7-.436c.262,0,.305.218.131.523s-.131.349.218.174c.392-.262.392-.48-.044-1.047-.436-.523-.436-.61,0-.349.262.174.523.131.523-.131,0-.218.392-.567.872-.7.48-.174.785-.436.654-.654s.174-.305.7-.218c.785.174.828.087.349-.48-.436-.523-.436-.654.087-.523.349.087.567-.087.523-.393-.087-.305.262-.436.785-.349.785.174.828.087.349-.48-.436-.523-.436-.654.087-.523.349.087.567-.087.523-.393-.087-.305.262-.436.785-.349.785.174.828.087.349-.567-.305-.392-.436-.61-.262-.479.349.305,14.518-13.908,14.388-14.431-.087-.218.305-.305.785-.218.785.174.828.087.349-.567-.305-.392-.436-.61-.262-.48.349.305,14.518-13.908,14.388-14.431-.087-.218.305-.305.785-.218.785.174.828.087.349-.567-.305-.393-.436-.611-.262-.48.349.305,14.518-13.908,14.388-14.431-.087-.218.305-.305.785-.218.785.174.828.087.349-.567-.305-.392-.436-.61-.262-.479s2.311-1.788,4.752-4.229c2.4-2.485,4.578-4.4,4.752-4.273.218.131.262-.131.087-.567-.131-.436-.131-.654.044-.48.218.174.872-.174,1.482-.741s1.264-.959,1.482-.828c.174.131.349,0,.349-.218,0-.262.131-.436.349-.436a1.716,1.716,0,0,0,.654-.044c.174-.044.523-.174.741-.218a1.9,1.9,0,0,0,.567-.218c.436-.393,17.091-.48,126.741-.61,68.232-.087,124.91-.305,126-.48,1.09-.131,2.441-.349,3.052-.436a4.475,4.475,0,0,0,1.09-.218,3.477,3.477,0,0,1,.785-.262c.392-.087,1.09-.261,1.526-.349.392-.131.785-.218.872-.261.044-.087.305-.174.523-.218.262-.043.567-.174.785-.218a1.605,1.605,0,0,1,.654-.044c.174,0,.305-.174.305-.436,0-.218.218-.305.436-.174.262.131.436.044.436-.218s.218-.349.436-.218.436.044.436-.218.218-.349.436-.218a.556.556,0,0,1,.174.741c-.174.305-.087.349.174.174a.789.789,0,0,0,.262-.915c-.174-.436,0-.567.654-.436.61.087.785-.044.654-.436-.174-.436,0-.567.654-.436s.785,0,.61-.567c-.131-.393-.131-.611.087-.436.174.174.785-.174,1.352-.741a8.225,8.225,0,0,1,1.352-1.221.31.31,0,0,0,.262-.393c-.087-.174.305-.218.785-.131.785.174.828.087.305-.523-.305-.393-.349-.611-.087-.436.48.305,2.224-1.744,2.006-2.4-.044-.174.218-.218.61-.044.349.131.61.087.567-.131-.131-.349,2.616-6.235,3.1-6.714a1.814,1.814,0,0,0,.349-.872l.872-3.488c.654-2.572.741-13.08.959-109.3.131-58.509.087-106.337-.087-106.206-.305.174-.48-1.788-.523-6.06-.044-.61-.174-1.046-.305-.959-.436.262-.916-2.79-.567-3.444.174-.262.131-.393-.044-.174-.218.174-1.09-1.264-2.006-3.139-1.7-3.662-1.962-4.055-4.1-6.234-.7-.741-1.264-1.482-1.177-1.7.044-.218-.174-.349-.436-.305a.332.332,0,0,1-.436-.436c.044-.349-.087-.48-.349-.305-.218.131-.567-.044-.7-.392-.131-.392-.436-.61-.61-.48-.567.349-1.4-1-1.046-1.613.262-.48.218-.48-.349,0-.523.436-.872.392-1.788-.349a3.938,3.938,0,0,0-1.613-.872c-.262,0-.392-.174-.218-.392a.6.6,0,0,0-.262-.741c-.349-.218-.392-.131-.174.262.262.436.174.523-.392.305a4.237,4.237,0,0,0-1.177-.305c-.262,0-.349-.174-.174-.393a.6.6,0,0,0-.262-.741c-.349-.218-.392-.131-.174.261.262.436.174.523-.349.305-.392-.131-1.918-.523-3.444-.828a7.9,7.9,0,0,1-3.313-1.221c-.349-.349-.48-.393-.305-.131.174.436-.262.567-1.744.567-1.4,0-1.918-.131-1.7-.523.174-.305.131-.349-.218-.174-.262.174-1.046-.087-1.787-.61a21.87,21.87,0,0,0-3.793-1.875l-2.529-.959L236.5-809.611C116.6-809.654,23.3-809.524,22.21-809.306Zm427.745,2.572a21.253,21.253,0,0,1,4.1,1.744c2.616,1.7,23.151.7,24.546,3.488l8.371,19.532c.049,47.138-.019,70.048,0,99.274.063,99.184-.453,118.693-.959,120.245-2.049,6.365-31.653-.523-38.28.741-1.526.305-46.3.436-130.8.436H188.408l-2.18,1.177c-1.57.916-10.9,10.246-35.576,35.664-18.4,18.922-33.571,34.486-33.745,34.574-.349.087-13.6-60.864-13.6-62.477,0-1.221-1.613-4.578-2.747-5.8a11.4,11.4,0,0,0-2.7-1.962c-1.744-.959-1.918-.959-38.367-1.177-36.492-.218-36.623-.218-39.2-1.177A18.834,18.834,0,0,1,8.956-574.876c-.7-2.529-.741-11.2-.61-110.871l.131-108.124,1.4-2.921A18.46,18.46,0,0,1,21.12-806.821c2.049-.7,14.213-.741,214.112-.785C445.508-807.605,447.208-807.605,449.955-806.733Z" transform="translate(2.86 809.62)" fill="#fff"/>
      </g>
      <g transform="matrix(1, 0, 0, 1, 26, 691.29)" filter="url(#COVID-19)">
        <text id="COVID-19-2" data-name="COVID-19" transform="translate(46 193.71)" fill="#fff" font-size="125" font-family="Futura-Bold, Futura" font-weight="700" letter-spacing="0.006em"><tspan x="0" y="0">C</tspan><tspan y="0" font-size="108">OVID-</tspan><tspan y="0" font-size="137">19</tspan></text>
      </g>
      <g transform="matrix(1, 0, 0, 1, 26, 691.29)" filter="url(#ASK)">
        <text id="ASK-2" data-name="ASK" transform="translate(148 93.71)" fill="#fff" font-size="75" font-family="Futura-Bold, Futura" font-weight="700" letter-spacing="0.006em"><tspan x="0" y="0">ASK</tspan></text>
      </g>
    </g>
  </g>
</svg>
