<svg xmlns="http://www.w3.org/2000/svg" width="512" height="471.896" viewBox="0 0 512 471.896">
  <g id="audio" transform="translate(0 -20.052)">
    <g id="Group_1" data-name="Group 1">
      <path id="Path_1" data-name="Path 1" d="M352.408,491.948a15,15,0,0,1-6.014-28.749A226.1,226.1,0,0,0,346.4,48.8a15,15,0,1,1,12.012-27.49,256.1,256.1,0,0,1-.008,469.376A14.937,14.937,0,0,1,352.408,491.948Z" fill="#4dbbeb"/>
      <path id="Path_2" data-name="Path 2" d="M352.413,378.768a15,15,0,0,1-10.01-26.176,129.6,129.6,0,0,0,0-193.19,15,15,0,0,1,20.01-22.352,159.6,159.6,0,0,1,0,237.892A14.925,14.925,0,0,1,352.413,378.768Z" fill="#4dbbeb"/>
      <path id="Path_3" data-name="Path 3" d="M262.78,57.851a15,15,0,0,0-15.65,1.284L130.59,144.6H15a15,15,0,0,0-15,15V352.4a15,15,0,0,0,15,15H130.59L247.129,452.86A15,15,0,0,0,271,440.764V71.231A15,15,0,0,0,262.78,57.851Z" fill="#4dbbeb"/>
    </g>
    <g id="Group_2" data-name="Group 2">
      <path id="Path_4" data-name="Path 4" d="M482,256A226.108,226.108,0,0,1,346.4,463.2a15,15,0,1,0,12.012,27.49A256.107,256.107,0,0,0,512,256Z" fill="#2488ff"/>
      <path id="Path_5" data-name="Path 5" d="M342.4,352.593a15,15,0,0,0,20.01,22.352A159.843,159.843,0,0,0,415.6,256h-30A129.817,129.817,0,0,1,342.4,352.593Z" fill="#2488ff"/>
      <path id="Path_6" data-name="Path 6" d="M0,352.4a15,15,0,0,0,15,15H130.59L247.129,452.86A15,15,0,0,0,271,440.764V256H0Z" fill="#2488ff"/>
    </g>
  </g>
</svg>
