<svg xmlns="http://www.w3.org/2000/svg" width="351.332" height="512" viewBox="0 0 351.332 512">
  <g id="microphone_1_" data-name="microphone (1)" transform="translate(-80.334)">
    <path id="Path_9" data-name="Path 9" d="M431.666,239.934a15,15,0,0,0-30,0C401.666,320.254,336.32,385.6,256,385.6S110.334,320.254,110.334,239.934a15,15,0,0,0-30,0c0,91.809,70.8,167.383,160.666,175.02V497a15,15,0,0,0,30,0V414.953C360.867,407.316,431.666,331.742,431.666,239.934Z" fill="#2488ff"/>
    <path id="Path_10" data-name="Path 10" d="M416.666,224.934a15,15,0,0,0-15,15C401.666,320.254,336.32,385.6,256,385.6h0V512h0a15,15,0,0,0,15-15V414.953c89.867-7.637,160.666-83.211,160.666-175.02A15,15,0,0,0,416.666,224.934Z" fill="#006df0"/>
    <g id="Group_3" data-name="Group 3">
      <path id="Path_11" data-name="Path 11" d="M256,0a79.356,79.356,0,0,0-79.266,79.266V239.934a79.267,79.267,0,0,0,158.534,0V79.266A79.357,79.357,0,0,0,256,0Z" fill="#4dbbeb"/>
      <path id="Path_12" data-name="Path 12" d="M304.2,512H207.8a15,15,0,1,1,0-30h96.4a15,15,0,1,1,0,30Z" fill="#4dbbeb"/>
    </g>
    <g id="Group_4" data-name="Group 4">
      <path id="Path_13" data-name="Path 13" d="M335.268,239.934V79.266A79.357,79.357,0,0,0,256,0h0V319.2h0A79.356,79.356,0,0,0,335.268,239.934Z" fill="#2488ff"/>
      <path id="Path_14" data-name="Path 14" d="M304.2,512a15,15,0,1,0,0-30H256v30Z" fill="#2488ff"/>
    </g>
  </g>
</svg>
