<svg xmlns="http://www.w3.org/2000/svg" width="724.078" height="724.078" viewBox="0 0 724.078 724.078">
  <g id="send_1_" data-name="send (1)" transform="translate(362.038 0) rotate(45)">
    <path id="Path_7" data-name="Path 7" d="M507.607,4.395a14.992,14.992,0,0,0-16.177-3.32l-482,192.8A15,15,0,0,0,8.454,221.3l190.067,92.182L290.7,503.546A15,15,0,0,0,304.2,512c.178,0,.357,0,.536-.01a15,15,0,0,0,13.394-9.419l192.8-482A15,15,0,0,0,507.607,4.395Z" fill="#4dbbeb"/>
    <path id="Path_8" data-name="Path 8" d="M507.607,4.395,198.522,313.477,290.7,503.545A15,15,0,0,0,304.2,512c.178,0,.357,0,.536-.01a15,15,0,0,0,13.394-9.419l192.8-482a15,15,0,0,0-3.321-16.178Z" fill="#2488ff"/>
  </g>
</svg>
